<?xml version="1.0" standalone="no"?>
<!DOCTYPE svg PUBLIC "-//W3C//DTD SVG 20010904//EN"
 "http://www.w3.org/TR/2001/REC-SVG-20010904/DTD/svg10.dtd">
<svg version="1.0" xmlns="http://www.w3.org/2000/svg"
 width="210.000000pt" height="55.000000pt" viewBox="0 0 210.000000 55.000000"
 preserveAspectRatio="xMidYMid meet">

<g transform="translate(0.000000,55.000000) scale(0.100000,-0.100000)"
fill="#000000" stroke="none">
<path d="M41 494 c-19 -24 -21 -40 -21 -174 0 -142 1 -150 28 -201 42 -80 85
-99 224 -99 102 0 110 1 133 25 24 23 25 29 25 162 0 159 -9 199 -53 250 -46
53 -80 63 -206 63 -106 0 -110 -1 -130 -26z m296 -20 c66 -53 73 -78 73 -256
0 -191 2 -188 -130 -188 -103 0 -144 11 -183 47 -53 51 -57 69 -57 242 0 200
-5 194 152 189 101 -3 108 -5 145 -34z"/>
<path d="M185 463 c41 -2 75 -8 75 -13 0 -5 -30 -10 -67 -12 l-68 -3 -3 -68
c-2 -46 -6 -65 -14 -61 -7 4 -8 3 -4 -5 15 -24 26 2 26 64 l0 64 68 3 c52 2
67 6 67 18 0 12 -16 15 -78 16 l-77 0 75 -3z"/>
<path d="M235 403 c46 -2 83 -9 88 -16 6 -8 7 -8 4 3 -3 12 -22 15 -88 16
l-84 0 80 -3z"/>
<path d="M184 366 c-3 -7 -3 -40 -1 -72 l3 -59 2 67 2 67 63 4 62 3 -63 2
c-45 1 -64 -2 -68 -12z"/>
<path d="M342 163 l-2 -83 -75 0 c-93 0 -99 18 -7 23 l67 4 -70 -1 c-55 -1
-70 -4 -70 -16 0 -21 153 -28 161 -7 3 8 3 47 1 88 l-3 74 -2 -82z"/>
<path d="M124 159 c-13 -21 14 -30 86 -27 50 2 74 7 76 16 1 7 0 8 -3 2 -2 -5
-38 -10 -80 -10 -63 0 -74 2 -69 15 6 17 0 20 -10 4z"/>
<path d="M178 163 c18 -2 45 -2 60 0 15 2 0 4 -33 4 -33 0 -45 -2 -27 -4z"/>
<path d="M1120 300 l0 -120 25 0 25 0 0 120 0 120 -25 0 -25 0 0 -120z"/>
<path d="M590 403 c-52 -19 -67 -80 -28 -107 12 -9 29 -16 38 -16 9 0 26 -7
39 -17 22 -15 23 -17 7 -29 -18 -13 -66 -5 -90 16 -10 7 -16 3 -24 -14 -10
-23 -8 -25 29 -40 90 -36 161 -2 147 71 -2 10 -27 30 -61 46 -68 33 -67 52 4
44 37 -5 49 -3 53 9 8 22 9 21 -25 33 -34 12 -64 13 -89 4z"/>
<path d="M782 345 c-58 -25 -66 -104 -15 -145 14 -11 36 -20 49 -20 31 0 74
20 74 36 0 18 -28 25 -50 12 -27 -17 -52 6 -48 46 3 29 5 31 47 31 45 0 62 14
39 32 -24 19 -63 22 -96 8z"/>
<path d="M953 349 c-23 -7 -31 -14 -26 -25 4 -11 14 -14 34 -10 35 7 59 -1 59
-20 0 -10 -13 -14 -43 -14 -48 0 -67 -13 -67 -45 0 -44 68 -73 98 -43 9 9 12
9 12 0 0 -7 11 -12 25 -12 24 0 25 2 25 74 0 49 -4 77 -13 85 -21 16 -68 21
-104 10z m65 -106 c-4 -22 -58 -31 -58 -10 0 20 10 27 37 27 18 0 24 -5 21
-17z"/>
<path d="M1250 342 c-94 -47 -36 -182 67 -157 44 11 54 41 13 38 -40 -3 -70 6
-70 22 0 12 14 15 61 15 l61 0 -7 28 c-14 58 -70 82 -125 54z m68 -34 c20 -20
14 -28 -23 -28 -24 0 -35 5 -35 14 0 24 39 33 58 14z"/>
<path d="M1730 349 c-31 -13 -32 -13 -24 -32 4 -12 11 -13 35 -5 22 7 33 7 44
-2 25 -21 17 -30 -28 -30 -50 0 -67 -13 -67 -52 0 -38 38 -57 81 -41 16 6 29
7 29 2 0 -5 11 -9 25 -9 24 0 25 2 25 68 0 73 -4 83 -37 101 -26 13 -49 13
-83 0z m68 -106 c-4 -22 -58 -31 -58 -10 0 20 10 27 37 27 18 0 24 -5 21 -17z"/>
<path d="M1413 265 c28 -77 34 -85 57 -85 23 0 29 7 45 58 l18 57 17 -55 c14
-50 19 -55 44 -55 26 0 30 6 57 79 16 44 29 81 29 83 0 2 -11 3 -25 3 -21 0
-27 -7 -40 -55 -9 -30 -18 -55 -20 -55 -2 0 -11 25 -20 55 -14 50 -18 55 -44
55 -26 0 -29 -4 -40 -55 -7 -30 -16 -53 -21 -50 -4 3 -13 27 -20 55 -11 45
-15 50 -40 50 l-27 0 30 -85z"/>
<path d="M1873 338 c3 -7 17 -43 32 -81 29 -71 27 -103 -4 -94 -10 2 -23 -3
-29 -14 -10 -16 -8 -20 14 -25 57 -14 76 4 121 116 24 58 43 106 43 108 0 2
-12 2 -27 0 -24 -3 -30 -11 -44 -58 l-17 -55 -11 30 c-31 82 -33 85 -58 85
-16 0 -23 -5 -20 -12z"/>
</g>
</svg>
